<mxfile host="app.diagrams.net" modified="2023-12-06T14:44:19.613Z" agent="Mozilla/5.0 (Macintosh; Intel Mac OS X 10_15_7) AppleWebKit/537.36 (KHTML, like Gecko) Chrome/119.0.0.0 Safari/537.36" version="22.1.6" etag="lV4a4XxbzCslPXC2KNqC" type="github">
  <diagram name="Page-1" id="PTALKSnc5AiTUOH0Pidu">
    <mxGraphModel>
      <root>
        <mxCell id="0" />
        <mxCell id="1" parent="0" />
      </root>
    </mxGraphModel>
  </diagram>
</mxfile>
